<svg width="23" height="24" viewBox="0 0 23 24" fill="none" xmlns="http://www.w3.org/2000/svg">
<path d="M3.18957 8.49997C3.65414 7.9962 4.18588 7.53549 4.77751 7.12836C5.40616 6.69576 6.08822 6.33342 6.8075 6.04589L3.22559 4.1923L3.18957 8.49997Z" fill="white"/>
<path d="M15.2138 6.04589C16.2073 6.44302 17.1261 6.98136 17.929 7.64559V4.1923L15.2138 6.04589Z" fill="white"/>
<path d="M9.07235 5.41025C9.85454 5.27688 10.6579 5.22378 11.466 5.25556C11.7872 5.26819 12.1063 5.29413 12.4223 5.33299L10.444 1.5L8.76634 5.46673C8.86796 5.44654 8.96997 5.42771 9.07235 5.41025Z" fill="white"/>
<path d="M17.929 7.64559C19.6762 9.09116 20.7552 11.0346 20.9652 13.1146C21.1753 15.1946 20.5022 17.2697 19.071 18.9538C17.6398 20.638 15.5479 21.8168 13.1843 22.271C10.8208 22.7252 8.34633 22.4239 6.22109 21.4231L1.00293 22.5L2.44625 18.3C1.19883 16.5105 0.747566 14.3912 1.17637 12.3364C1.47113 10.9238 2.16796 9.60778 3.18957 8.49997M17.929 7.64559C17.1261 6.98136 16.2073 6.44302 15.2138 6.04589M17.929 7.64559V4.1923L15.2138 6.04589M3.18957 8.49997C3.65414 7.9962 4.18588 7.53549 4.77751 7.12836C5.40616 6.69575 6.08822 6.33342 6.8075 6.04589M3.18957 8.49997L3.22559 4.1923L6.8075 6.04589M6.8075 6.04589C7.43565 5.79478 8.0922 5.60072 8.76634 5.46673M15.2138 6.04589C14.3324 5.69351 13.3922 5.45231 12.4223 5.33299M12.4223 5.33299C12.1063 5.29413 11.7872 5.26819 11.466 5.25556C10.6579 5.22378 9.85454 5.27688 9.07235 5.41025C8.96997 5.42771 8.86796 5.44654 8.76634 5.46673M12.4223 5.33299L10.444 1.5L8.76634 5.46673" stroke="white" stroke-width="2" stroke-linecap="round" stroke-linejoin="round"/>
</svg>
