<svg width="13" height="12" viewBox="0 0 13 12" fill="none" xmlns="http://www.w3.org/2000/svg">
<path d="M6.47032 9.46771L3.25574 11.1578L3.8698 7.57812L1.26564 5.04323L4.85939 4.5224L6.46668 1.26562L8.07397 4.5224L11.6677 5.04323L9.06355 7.57812L9.67762 11.1578L6.47032 9.46771Z" fill="#5F5F5F"/>
<path fill-rule="evenodd" clip-rule="evenodd" d="M6.46668 0.875C6.61537 0.875 6.75116 0.959414 6.81697 1.09275L8.33333 4.16528L11.7237 4.65664C11.871 4.67798 11.9933 4.78109 12.0392 4.92258C12.0852 5.06407 12.0468 5.21938 11.9402 5.32314L9.48331 7.71467L10.0626 11.0918C10.0878 11.2384 10.0275 11.3866 9.90707 11.4739C9.78668 11.5613 9.62711 11.5727 9.49551 11.5034L6.47012 9.90914L3.43752 11.5036C3.30591 11.5728 3.14643 11.5612 3.02614 11.4738C2.90584 11.3864 2.8456 11.2383 2.87074 11.0918L3.45005 7.71467L0.993171 5.32314C0.886571 5.21938 0.848163 5.06407 0.89411 4.92258C0.940058 4.78109 1.06238 4.67798 1.20961 4.65664L4.60003 4.16528L6.11639 1.09275C6.18219 0.959414 6.31799 0.875 6.46668 0.875ZM6.46668 2.14827L5.20967 4.69527C5.15275 4.81061 5.0427 4.89053 4.91541 4.90898L2.10603 5.31614L4.14227 7.29821C4.23447 7.38796 4.27656 7.51735 4.2548 7.64417L3.77457 10.4437L6.28854 9.12196C6.40246 9.06206 6.53857 9.06213 6.65243 9.12213L9.15863 10.4428L8.67855 7.64417C8.6568 7.51735 8.69889 7.38796 8.79109 7.29821L10.8273 5.31614L8.01794 4.90898C7.89065 4.89053 7.7806 4.81061 7.72368 4.69527L6.46668 2.14827Z" fill="#5F5F5F"/>
</svg>
