<svg width="13" height="13" viewBox="0 0 13 13" fill="none" xmlns="http://www.w3.org/2000/svg">
<path d="M7.75 8.375V9.625C7.75 9.79076 7.68415 9.94973 7.56694 10.0669C7.44973 10.1842 7.29076 10.25 7.125 10.25H2.75L0.875 12.125V5.875C0.875 5.70924 0.940848 5.55027 1.05806 5.43306C1.17527 5.31585 1.33424 5.25 1.5 5.25H2.75M12.125 7.75L10.25 5.875H5.875C5.70924 5.875 5.55027 5.80915 5.43306 5.69194C5.31585 5.57473 5.25 5.41576 5.25 5.25V1.5C5.25 1.33424 5.31585 1.17527 5.43306 1.05806C5.55027 0.940848 5.70924 0.875 5.875 0.875H11.5C11.6658 0.875 11.8247 0.940848 11.9419 1.05806C12.0592 1.17527 12.125 1.33424 12.125 1.5V7.75Z" stroke="#A7A7A7" stroke-width="1.66667" stroke-linecap="round" stroke-linejoin="round"/>
</svg>
