<svg width="13" height="13" viewBox="0 0 13 13" fill="none" xmlns="http://www.w3.org/2000/svg">
<path d="M4.62477 6.5L5.87477 7.75L8.37477 5.25M6.49977 0.875C7.95967 2.16661 9.86507 2.8391 11.8123 2.75C12.0958 3.71438 12.1825 4.72592 12.0674 5.72449C11.9522 6.72306 11.6375 7.68829 11.1419 8.56283C10.6463 9.43737 9.98002 10.2034 9.18256 10.8153C8.3851 11.4272 7.47277 11.8726 6.49977 12.125C5.52678 11.8726 4.61445 11.4272 3.81699 10.8153C3.01953 10.2034 2.35322 9.43737 1.85765 8.56283C1.36208 7.68829 1.04736 6.72306 0.932196 5.72449C0.817035 4.72592 0.903779 3.71438 1.18727 2.75C3.13448 2.8391 5.03988 2.16661 6.49977 0.875Z" stroke="#6FEB42" stroke-width="1.25" stroke-linecap="round" stroke-linejoin="round"/>
</svg>
